<?xml version="1.0" standalone="no"?>
<!DOCTYPE svg PUBLIC "-//W3C//DTD SVG 20010904//EN"
 "http://www.w3.org/TR/2001/REC-SVG-20010904/DTD/svg10.dtd">
<svg version="1.0" xmlns="http://www.w3.org/2000/svg"
 width="234.000000pt" height="240.000000pt" viewBox="0 0 234.000000 240.000000"
 preserveAspectRatio="xMidYMid meet">

<g transform="translate(0.000000,240.000000) scale(0.100000,-0.100000)"
fill="#000000" stroke="none">
<path d="M1040 2054 c-161 -42 -311 -168 -387 -324 -62 -126 -77 -192 -77
-345 0 -150 12 -218 61 -369 112 -339 354 -626 528 -626 217 0 530 450 591
851 40 264 -25 488 -191 655 -87 87 -162 131 -270 159 -73 19 -182 18 -255 -1z
m-171 -769 c72 -33 151 -112 183 -182 14 -33 22 -77 26 -137 l5 -88 -84 3
c-108 5 -195 45 -263 120 -71 79 -117 240 -86 299 11 21 16 22 86 17 48 -3 93
-15 133 -32z m822 13 c7 -13 9 -43 6 -79 -15 -137 -87 -243 -205 -301 -56 -28
-80 -34 -151 -37 l-84 -3 5 88 c6 108 29 164 95 235 73 78 160 116 270 118 44
1 54 -2 64 -21z m-428 -753 c-3 -11 -157 -20 -180 -11 -8 3 -11 11 -8 16 9 14
191 9 188 -5z"/>
</g>
</svg>
